<svg width="28" height="28" viewBox="0 0 28 28" fill="none" xmlns="http://www.w3.org/2000/svg">
<path d="M26.9006 16.3506L25.0381 13.8756C25.0506 13.6506 25.0381 13.4131 25.0381 13.2381L26.9006 10.7506C26.9933 10.6296 27.0562 10.4885 27.0844 10.3387C27.1127 10.1889 27.1054 10.0346 27.0631 9.88814C26.7481 8.73571 26.2904 7.62714 25.7006 6.58814C25.6246 6.45616 25.52 6.3428 25.3946 6.25631C25.2692 6.16982 25.1261 6.11237 24.9756 6.08814L21.9131 5.65064L21.4506 5.18814L21.0131 2.12564C20.9887 1.97689 20.9325 1.83514 20.8484 1.71003C20.7643 1.58493 20.6542 1.47941 20.5256 1.40064C19.4812 0.81304 18.3688 0.355472 17.2131 0.0381443C17.0667 -0.00407314 16.9124 -0.0113638 16.7626 0.0168573C16.6128 0.0450784 16.4717 0.108025 16.3506 0.200644L13.8756 2.05064H13.2256L10.7506 0.200644C10.6296 0.108025 10.4885 0.0450784 10.3387 0.0168573C10.1889 -0.0113638 10.0346 -0.00407314 9.88814 0.0381443C8.73571 0.353169 7.62714 0.810877 6.58814 1.40064C6.45616 1.47674 6.3428 1.58129 6.25631 1.70671C6.16982 1.83212 6.11237 1.97524 6.08814 2.12564L5.65064 5.18814L5.18814 5.65064L2.12564 6.08814C1.97524 6.11237 1.83212 6.16982 1.70671 6.25631C1.58129 6.3428 1.47674 6.45616 1.40064 6.58814C0.810877 7.62714 0.353169 8.73571 0.0381443 9.88814C-0.00407314 10.0346 -0.0113638 10.1889 0.0168573 10.3387C0.0450784 10.4885 0.108025 10.6296 0.200644 10.7506L2.06314 13.2256V13.8631L0.200644 16.3506C0.108025 16.4717 0.0450784 16.6128 0.0168573 16.7626C-0.0113638 16.9124 -0.00407314 17.0667 0.0381443 17.2131C0.353169 18.3656 0.810877 19.4741 1.40064 20.5131C1.47674 20.6451 1.58129 20.7585 1.70671 20.845C1.83212 20.9315 1.97524 20.9889 2.12564 21.0131L5.18814 21.4506L5.65064 21.9131L6.08814 24.9756C6.11237 25.1261 6.16982 25.2692 6.25631 25.3946C6.3428 25.52 6.45616 25.6246 6.58814 25.7006C7.62714 26.2904 8.73571 26.7481 9.88814 27.0631C9.97346 27.0879 10.0618 27.1005 10.1506 27.1006C10.3675 27.1035 10.5789 27.033 10.7506 26.9006L13.2256 25.0506H13.8756L16.3506 26.9006C16.4717 26.9933 16.6128 27.0562 16.7626 27.0844C16.9124 27.1127 17.0667 27.1054 17.2131 27.0631C18.3663 26.7504 19.4752 26.2926 20.5131 25.7006C20.6451 25.6246 20.7585 25.52 20.845 25.3946C20.9315 25.2692 20.9889 25.1261 21.0131 24.9756L21.4506 21.9006C21.6006 21.7506 21.7756 21.5881 21.9006 21.4506L24.9756 21.0131C25.1261 20.9889 25.2692 20.9315 25.3946 20.845C25.52 20.7585 25.6246 20.6451 25.7006 20.5131C26.2904 19.4741 26.7481 18.3656 27.0631 17.2131C27.1054 17.0667 27.1127 16.9124 27.0844 16.7626C27.0562 16.6128 26.9933 16.4717 26.9006 16.3506ZM13.5506 19.0506C12.4628 19.0506 11.3995 18.7281 10.495 18.1237C9.59054 17.5194 8.88559 16.6604 8.46931 15.6554C8.05303 14.6504 7.94411 13.5445 8.15633 12.4776C8.36854 11.4108 8.89237 10.4307 9.66156 9.66156C10.4307 8.89237 11.4108 8.36854 12.4776 8.15633C13.5445 7.94411 14.6504 8.05303 15.6554 8.46931C16.6604 8.88559 17.5194 9.59054 18.1237 10.495C18.7281 11.3995 19.0506 12.4628 19.0506 13.5506C19.0506 15.0093 18.4712 16.4083 17.4397 17.4397C16.4083 18.4712 15.0093 19.0506 13.5506 19.0506Z" fill="#48C7E1"/>
</svg>
