<svg width="15" height="12" viewBox="0 0 15 12" fill="none" xmlns="http://www.w3.org/2000/svg">
<path d="M1 5.3C0.613401 5.3 0.3 5.6134 0.3 6C0.3 6.3866 0.613401 6.7 1 6.7L1 6L1 5.3ZM14.495 6.49498C14.7683 6.22161 14.7683 5.77839 14.495 5.50503L10.0402 1.05025C9.76684 0.776886 9.32362 0.776886 9.05025 1.05025C8.77689 1.32362 8.77689 1.76684 9.05025 2.0402L13.0101 6L9.05025 9.9598C8.77689 10.2332 8.77689 10.6764 9.05025 10.9497C9.32362 11.2231 9.76683 11.2231 10.0402 10.9497L14.495 6.49498ZM1 6L1 6.7L14 6.7L14 6L14 5.3L1 5.3L1 6Z" fill="#34A3A0"/>
</svg>
